<?xml version="1.0" encoding="utf-8"?>
<!-- Generator: Adobe Illustrator 21.1.0, SVG Export Plug-In . SVG Version: 6.00 Build 0)  -->
<svg version="1.1" id="Layer_1" xmlns="http://www.w3.org/2000/svg" xmlns:xlink="http://www.w3.org/1999/xlink" x="0px" y="0px"
	 viewBox="0 0 1027 710.3" style="enable-background:new 0 0 1027 710.3;" xml:space="preserve">
<style type="text/css">
	.st0{fill:#CC0000;}
	.st1{opacity:0.1;fill:#CC0000;}
</style>
<g id="XMLID_223_">
	<path id="XMLID_244_" class="st0" d="M942.4,633.7C930.7,593.6,866,460.8,689,360.8C512,260.7,0,51.6,0,51.6V158h27.7l11.5-49
		c126.6,58.3,524.5,242.8,636.4,307.6c133.7,77.4,162,287.6,200.9,287.3C915.3,703.5,954,673.9,942.4,633.7z"/>
	<path id="XMLID_230_" class="st0" d="M1026,42v-0.1c0.9,0-509.9,218.5-686.2,321.9C163.4,467.1,99.6,601,88.1,641.4
		c-11.4,40.4,27.5,69.3,66.4,68.9c38.9-0.4,65.9-211,199.1-290.9C465.1,352.4,861.7,160.7,988,100l11.3,48h27.7V41.9L1026,42z"/>
	<path id="XMLID_229_" class="st1" d="M247.1,488.2c-26.5,0.2-53.4-5.9-79.9-18.3c-67.7-31.6-99.6-107.6-122-290.3
		c-2.7-22.3-0.7-39.8,6.4-55.3c21-45.5,84.7-74.2,166.2-74.9c26.2-0.2,52.8,2.7,72.9,8c36.7,9.7,68.3,32.6,94.9,53.4
		c19.6,15.1,67.6,86.6,49.6,183.2c-1.4,6.4-3,13.5-4.8,20.9c-4.8,17.5-11.9,39.1-20.8,63.6c-10.9,25.2-24.4,45.3-39.7,58.9
		C332.6,470.1,290.2,487.8,247.1,488.2z"/>
	<path id="XMLID_225_" class="st0" d="M730.4,9.9c-83.9,23.7-138.9,108.2-166.6,93.4c-27.7-14.8-39.2-16.1-51.2-16
		s-23.5,1.7-51.1,17c-27.6,15.3-83.1-68.1-167.1-90.3C210.4-8.3-2.5,1.4,20.5,188.7c23,187.4,58.2,285.2,140.1,323.5
		s159.4,18.3,220.5-35.9c57.4-50.8,76.5-158.7,85.9-209.8c0,0,0,0,0,0l0,0c0.6-3.3,1.2-6.4,1.7-9.2c1.3-6.9,3.3-13.2,5.6-18.9
		c9.6-29.4,23.2-46.4,38.6-46.5c15.3-0.1,29,16.6,38.8,45.8c2.4,5.7,4.4,11.9,5.7,18.8c0.6,2.8,1.1,5.9,1.8,9.2l0,0l0,0
		c9.7,50.9,29.5,158.4,87.2,208.2c61.4,53,139,71.6,220.7,31.8s116.3-138.3,138.2-326.1C1027.3-8.1,814.3-13.8,730.4,9.9z
		 M435.2,293.9c-1.4,6.4-3,13.5-4.8,20.9c-4.8,17.5-11.9,39.1-20.8,63.6c-10.9,25.2-24.4,45.3-39.7,58.9
		c-37.1,32.9-79.5,50.5-122.7,50.9c-26.5,0.2-53.4-5.9-79.9-18.3c-67.7-31.6-99.6-107.6-122-290.3c-2.7-22.3-0.7-39.8,6.4-55.3
		c21-45.5,84.7-74.2,166.2-74.9c26.2-0.2,52.8,2.7,72.9,8c36.7,9.7,68.3,32.6,94.9,53.4C405.1,125.8,453.2,197.3,435.2,293.9z
		 M980.7,170.9C959.4,354,927.9,430.6,860.5,463.4c-26.5,12.9-53.3,19.5-79.8,19.8c-43.1,0.4-85.6-16.4-123-48.6
		c-15.4-13.3-29-33.2-40.1-58.2c-9.1-24.3-16.3-45.7-21.2-63.2c-1.9-7.3-3.5-14.5-5-20.8c-18.6-96.2,29-168.6,48.5-184.1
		c26.5-21.2,57.9-44.7,94.6-55.1c20.1-5.7,46.6-9.1,72.8-9.3c81.5-0.8,145.3,26.8,166.6,71.8C981.1,131.1,983.3,148.6,980.7,170.9z"
		/>
	<path id="XMLID_224_" class="st1" d="M780.7,483.2c26.5-0.2,53.3-6.9,79.8-19.8c67.5-32.9,99-109.4,120.2-292.5
		c2.6-22.3,0.4-39.8-6.8-55.2c-21.3-45.1-85.1-72.6-166.6-71.8c-26.2,0.2-52.7,3.6-72.8,9.3c-36.7,10.4-68.1,33.9-94.6,55.1
		c-19.5,15.5-67.1,87.9-48.5,184.1c1.4,6.3,3.1,13.5,5,20.8c4.9,17.4,12.1,38.9,21.2,63.2c11.1,25,24.7,44.9,40.1,58.2
		C695,466.8,737.6,483.6,780.7,483.2z"/>
</g>
</svg>
