<?xml version="1.0" encoding="utf-8"?>
<!-- Generator: Adobe Illustrator 21.1.0, SVG Export Plug-In . SVG Version: 6.00 Build 0)  -->
<svg version="1.1" id="Layer_1" xmlns="http://www.w3.org/2000/svg" xmlns:xlink="http://www.w3.org/1999/xlink" x="0px" y="0px"
	 viewBox="0 0 213.7 116.5" style="enable-background:new 0 0 213.7 116.5;" xml:space="preserve">
<style type="text/css">
	.st0{fill:#9999CC;stroke:#FFFFFF;stroke-width:0.4669;}
	.st1{fill:none;stroke:#FFFBCC;stroke-width:0.3606;}
	.st2{fill:#FFCCCC;}
	.st3{fill:#FFCCCC;stroke:#FFFFFF;stroke-width:0.7004;}
	.st4{fill:#9999CC;stroke:#FBC8B4;stroke-width:0.4669;}
	.st5{fill:#CCCCCC;}
	.st6{fill:#9999CC;}
	.st7{fill:none;stroke:#231F20;stroke-width:0.4669;}
	.st8{fill:url(#SVGID_1_);}
	.st9{fill:#666699;stroke:#000000;stroke-miterlimit:10;}
</style>
<symbol  id="Laptop" viewBox="-34.6 -40.8 69.1 81.7">
	<g>
		<g>
			<g>
				<path class="st0" d="M18.7-13.3c0,0,0.9,4,2.4,9s7.2,15,8.9,17.4c1.7,2.5,7.3,8.7,2.2,14.3S12.4,49.8-16.1,34L18.7-13.3z"/>
				<path class="st1" d="M21.1,33.4c-9.3,6.5-19.9,6.7-28.7,4.1C-19.7,34-28.5,25.6-26.7,21c3.1-7.9,10.5-31.6,10.5-31.6l29.5-2.3
					l5.1-0.4C19.1,14.8,43,18,21.1,33.4z"/>
				<path class="st2" d="M-7.6,37.5C-19.7,34-28.5,25.6-26.7,21c3.1-7.9,10.5-31.6,10.5-31.6l29.5-2.3C17.2,19.1,1.7,32.4-7.6,37.5z
					"/>
				<path class="st2" d="M21.1,33.4c-9.3,6.5-19.9,6.7-28.7,4.1c9.3-5.1,24.9-18.4,20.9-50.4l5.1-0.4C19.1,14.8,43,18,21.1,33.4z"/>
				<path class="st0" d="M-33.5-24.8c0,0-3.4-2.7,3.2-8.5c7.2-6.4,42.7-11.9,52.4-1.4c1.2,1.7,1.2,2.8,0.7,5.4
					C22.7-29.3-32.8-26-33.5-24.8z"/>
				<path class="st3" d="M-16-10.9l34.7-2.5c0,0-2.3-3.7,4-15.9c-3.3-7.5-29.5-8.8-49.2-1.4C-46.1-23.3-21.4-22.8-16-10.9z"/>
				<path class="st4" d="M-14.1-5.4c6-0.2,18.4-0.2,30.5-2.6c-0.5,10,6.3,33.8,6.3,33.8s-22.6,7.3-46.8-0.1
					C-22.4,21.2-18.5,11.5-14.1-5.4z"/>
				<path class="st5" d="M-13.5-4.8C-7.8-5,4-5.1,15.5-7.4c-0.5,9.7,5.9,32.5,5.9,32.5s-21.5,7.1-44.5,0
					C-21.5,20.8-17.8,11.5-13.5-4.8z"/>
				<path class="st6" d="M-14.1-13c0,0-7.6-8.5-14.3-11.9c0,0,17.7-12.3,47.6-4.8c0,0-4.8,9.5-3.6,14C15.6-15.7-10-15.9-14.1-13z"/>
				<path class="st5" d="M15.4-17.2l0.2,1.5l-0.8,0.9l-1.2,0.1l-0.8-0.8l-0.6,0.9h-2l-0.9-0.7l-0.4,0.6l-1.8,0.3L5.9-15l-0.7,0.7
					L3.4-14l-1.1-0.8l-0.4,0.9L0-13.8l-1.3-0.8l-0.4,0.9l-1.8-0.1l-0.9-0.6l-0.4,0.8l-1.6,0.2l-1-0.6l0.1,0.7l-1.6,0.4l-0.8-0.6
					l-0.1,0.8h-1.7l-0.7-0.4l-0.6,0.5l-2.5,0.2l-0.8-0.8v-0.9l-0.8-0.1l-1.1-1.2l-0.2-0.9l-0.6,0.2l-1.1-1l-0.4-0.9l-0.8-0.1
					l-1.1-0.8l-0.5-1.3l-0.7,0.5l-1.8-1.3l-0.1-1l-1,0.1l-1.7-1.2l-0.2-1.5l1.9-0.9l1.1,1.8l1.7-1.1l-0.1-2.4l1.8,1.8l2.2-0.6
					l0.1-2.5l1.3,2.5l2.6-1.2l0.2-2.7l1.1,2.6l2.2-0.6l0.3-2.9l1.3,2.5c5.7-2.2,17.6-1.3,17.6-1.3l0.8-1.6l0.5,2.1l1.5-0.1l0.9-1.9
					l0.6,2.2h1.9l0.8-1.6l0.9,2.1c0,0,1.5,0.1,2.2,0.5s2-1.7,2-1.7S15.8-23.1,15.4-17.2z"/>
				<line class="st7" x1="-12.8" y1="-13.2" x2="-22.9" y2="-24.5"/>
				<line class="st7" x1="-9.7" y1="-13.3" x2="-18.4" y2="-25.4"/>
				<line class="st7" x1="-7" y1="-13.9" x2="-14.2" y2="-26.1"/>
				<line class="st7" x1="-4.2" y1="-14.2" x2="-9.3" y2="-26"/>
				<line class="st7" x1="-1.2" y1="-14.7" x2="-5.1" y2="-26.8"/>
				<line class="st7" x1="2.5" y1="-14.7" x2="0.4" y2="-26.7"/>
				<line class="st7" x1="6.2" y1="-14.9" x2="5.1" y2="-27.3"/>
				<line class="st7" x1="9.2" y1="-15.3" x2="9.4" y2="-26.9"/>
				<line class="st7" x1="12.8" y1="-15.2" x2="13.3" y2="-25.6"/>
				<path class="st7" d="M15-16.6c0,0-26.2,0.8-30.8,2.8"/>
				<path class="st7" d="M14.6-19.4c0,0-29.5,0.6-32.4,3.3"/>
				<path class="st7" d="M-19.8-18.3c0,0,15-5.5,34.8-3.4"/>
				<path class="st7" d="M-21.9-19.9c0,0,10-6,36.1-5.3"/>
				<path class="st7" d="M-10.5-25.9c0,0,9.1-2.3,17.5-1.4"/>
				
					<radialGradient id="SVGID_1_" cx="6623.7295" cy="4375.7715" r="0.9034" gradientTransform="matrix(0.9838 0.1837 -0.1808 0.9999 -5713.8682 -5602.3564)" gradientUnits="userSpaceOnUse">
					<stop  offset="0" style="stop-color:#E9DCAE"/>
					<stop  offset="1" style="stop-color:#ED1C24"/>
				</radialGradient>
				<path class="st8" d="M12.2-10.1c0.1-0.5-0.2-1-0.7-1.1s-1,0.2-1.1,0.7s0.2,1,0.7,1.1C11.6-9.2,12.1-9.6,12.2-10.1z"/>
			</g>
		</g>
	</g>
</symbol>
<ellipse class="st9" cx="106.8" cy="57.7" rx="101" ry="54"/>
<use xlink:href="#Laptop"  width="69.1" height="81.7" id="XMLID_1_" x="-34.6" y="-40.8" transform="matrix(0.9973 0 0 -1.0034 105.234 57.5159)" style="overflow:visible;"/>
<g>
	<path d="M35.2,52.7c-1.6,1.2-2.8,3.8-3.5,5.4c3.1-0.1,7.4-1.5,8.4-3.9c0.4-1.1-0.2-1.8-1.1-2.2c-3.5-1.6-9,0.7-11.7,2.4
		c-3.2,2-1.3,4-1.3,4c0.4,0.4-2.7-0.1-2.9-2.2c-0.1-2.4,3.7-4.8,8.2-6c2.4-0.6,5-1,7.4-0.4c2.4,0.6,3.8,2,3.2,4.3
		c-1,3.6-6.4,5.6-9.9,5.6c-0.3,0-0.7,0-0.9-0.1c-0.4,1.2-1,4.6,0,5.6c0.2,0.2-0.3,0.1-0.4,0.1c-2.2-0.3-3.2-2.9-1.8-6.8
		c-0.5-0.6-0.5-1.3-0.4-1.4c0.2-0.2,0.3,0,0.3,0s0.1,0.2,0.4,0.4c1.2-3.1,3.8-6.2,6.2-5.8C36.1,51.8,35.9,52.2,35.2,52.7z"/>
	<path d="M46.4,54.4c0.1,0,0.6,0.2,0.7,0.3c0.2-0.2,1.5-0.6,2.3,0c0.2,0.2-0.1,0.1-0.5,0.8c-0.2,0.4-0.4,0.8-0.6,1.2
		c-0.7,1.5-0.8,2.7-0.2,2.7c1.1,0,2.3-1.9,2.3-1.9l0.4,0.4c0,0-1.3,2.3-3.1,2.7c-1.1,0.3-1.9-0.1-2.2-0.9c-0.6,0.4-1.2,0.7-1.8,0.9
		c-1.8,0.4-3.5-0.8-3.1-2.4c0.1-0.4,0.3-0.8,0.5-1.2C42.2,55.3,44.2,53.9,46.4,54.4z M45.9,57c-0.6,0.2-1.4-0.1-0.5-0.4
		c0.3-0.1,0.5-0.3,0.6-0.6c0.3-0.5,0-0.8-0.3-0.9c-0.3,0-0.9,0.2-1.4,0.9c-0.6,0.6-1.2,1.7-1.4,2.4c-0.1,0.6,0.1,1.1,1,1
		C45.2,59.3,45.5,58.2,45.9,57z"/>
	<path d="M55.1,53.3c-0.2,0.2-0.4,0.4-0.6,0.7c1-0.1,1.8-0.1,2,0c0.4,0.2,0.3,0.4-0.3,0.5c-0.2,0.1-1.2,0.3-2.3,0.5
		c-0.7,1-1.3,2.1-1.7,2.9c-0.5,1.1-0.1,1.5,0.5,1.5c1.5,0,4-1.5,4.7-2.8c-1-0.2-1.2-0.9-0.9-1.4c0.6-1.1,2.7-1,3,0.3
		c0.1,0,0.2-0.1,0.2-0.1v0c0.8-0.3,1.5-0.6,1.9-0.7c1.9-0.7,2.2,0,1.7,0.9c-0.2,0.5-3.1,3.9-1.2,3.8c1.1-0.1,2.3-1.9,2.3-1.9
		l0.4,0.4c0,0-1.3,2.3-3.1,2.7s-2.7-0.8-2.3-2.4c0.1-0.5,0.6-1.6,0.9-2.1c-0.3,0.1-0.5,0.2-0.8,0.3c-0.5,2-5.4,4.5-7.9,4.3
		c-3.5-0.3-1.4-3.9-0.6-5.3c-0.3,0-0.5,0.1-0.6,0.1c-0.6,0-1.2-1-0.3-1.2c0,0,0.8-0.1,1.8-0.2c0.3-0.4,0.5-0.6,0.7-0.9
		c0.7-0.7,1.6-1.1,2.9-0.9C55.9,52.5,55.6,52.8,55.1,53.3z M57.3,54.9c-0.4,0.2-0.1,0.8,0.4,0.9c0,0,0.1-0.1,0.1-0.1
		c0.2-0.7-0.2-0.8-0.2-0.8C57.5,54.8,57.4,54.8,57.3,54.9z"/>
	<path d="M68.3,55.3c-2,2.2-2.5,4.1-1.5,4.1c1.1-0.1,2.3-1.9,2.3-1.9l0.4,0.4c0,0-1.3,2.3-3.1,2.7c-1.8,0.4-2.7-0.8-2.3-2.4
		c0.2-0.6,0.5-1.3,0.9-1.9c0.9-1.4,1.9-2.2,3.7-2C69.2,54.4,68.8,54.7,68.3,55.3z M69.6,53.6c-0.2,0.3-0.8,0.5-1.4,0.5
		c-0.6,0-0.9-0.3-0.7-0.6c0.2-0.3,0.8-0.5,1.4-0.5C69.4,53.1,69.8,53.3,69.6,53.6z"/>
	<path d="M74.1,54.4c1.4,0.3,0.7,1.4,0.1,1.4c-0.6,0,0.4-0.6-0.7-0.7c-0.2,0-0.6,0.1-1,0.5c-0.8,0.6-1.6,2-1.8,2.8
		c-0.1,0.6,0.1,1.1,1,1c1-0.2,3.7-2.1,3.7-2.1l0.4,0.4c0,0-2.5,2.5-4.2,2.9c-1.8,0.4-3.5-0.8-3.1-2.4c0.1-0.4,0.3-0.8,0.5-1.2
		C69.9,55.3,71.9,53.9,74.1,54.4z"/>
	<path d="M79,55.3c-2,2.2-2.5,4.1-1.5,4.1c1.1-0.1,2.3-1.9,2.3-1.9l0.4,0.4c0,0-1.3,2.3-3.1,2.7c-1.8,0.4-2.7-0.8-2.3-2.4
		c0.2-0.6,0.5-1.3,0.9-1.9c0.9-1.4,1.9-2.2,3.7-2C79.8,54.4,79.5,54.7,79,55.3z M80.3,53.6c-0.2,0.3-0.8,0.5-1.4,0.5
		c-0.6,0-0.9-0.3-0.7-0.6c0.2-0.3,0.8-0.5,1.4-0.5C80.1,53.1,80.5,53.3,80.3,53.6z"/>
	<path d="M84.6,54.4c0.1,0,0.6,0.2,0.7,0.3c0.2-0.2,1.5-0.6,2.3,0c0.2,0.2-0.1,0.1-0.5,0.8c-0.2,0.4-0.4,0.8-0.6,1.2
		c-0.7,1.5-0.8,2.7-0.2,2.7c1.1,0,2.3-1.9,2.3-1.9l0.4,0.4c0,0-1.3,2.3-3.1,2.7c-1.1,0.3-1.9-0.1-2.2-0.9c-0.6,0.4-1.2,0.7-1.8,0.9
		c-1.8,0.4-3.5-0.8-3.1-2.4c0.1-0.4,0.3-0.8,0.5-1.2C80.4,55.3,82.5,53.9,84.6,54.4z M84.1,57c-0.6,0.2-1.4-0.1-0.5-0.4
		c0.3-0.1,0.5-0.3,0.6-0.6c0.3-0.5,0-0.8-0.3-0.9c-0.3,0-0.9,0.2-1.4,0.9c-0.6,0.6-1.2,1.7-1.4,2.4c-0.1,0.6,0.1,1.1,1,1
		C83.5,59.3,83.8,58.2,84.1,57z"/>
	<path d="M97.1,55.7c-1,1.5,0.2,2.7,0.2,2.7c0.4,0.4-2.7-0.1-2.9-2.2c-0.1-2.4,3.7-4.8,8.2-6c1.4-0.3,3.8-0.9,5.3-0.5
		c1.3,0.4,1.9,2.1,1.6,2.2c-0.2,0-0.5-0.3-1.3-0.5c-0.2,0-0.4-0.1-0.7-0.1c-0.1,0.2-0.3,0.3-0.6,0.6c-0.5,0.4-1.1,1-1.6,1.8
		c-0.4,0.6-1.6,2.7-2.2,4.2c0.7-0.2,1.6-0.5,2.7-1.2c3.7-2.3,8.3-7.7,10.4-7.1c0.9,0.2,1.3,1,1.3,1.6c0,0.4-0.1,0.8-0.3,0.8
		c-0.3,0.1-0.2-0.7-1.5,0.1c-2.1,1.3-8,6.3-11.8,7c0.1,0.1,0.1,0.1,0.1,0.1c0.8,3.2,4.6,5.3,6.6,6c0.4,0.1,0.7,0.1,1.2-0.1
		c0.2-0.1,0.3,0.1,0.3,0.3c-0.3,1.2-1.5,1.7-3,1.5c-2.9-0.5-6.2-4.3-6.8-6.9c-0.5,1.5-0.7,2.8-0.1,3.3c0.2,0.2-0.3,0.1-0.4,0.1
		c-1.9-0.2-2.2-2.4-1.4-4.9c-0.5-0.6-0.5-1.3-0.4-1.4c0.2-0.2,0.3,0,0.3,0s0,0.1,0.2,0.2l0,0c0,0,0.1,0.1,0.2,0.2
		c0.8-2.2,2.4-4.6,4.1-5.9C101.8,52.6,98,54.3,97.1,55.7z"/>
	<path d="M116.1,54.4c0.1,0,0.6,0.2,0.7,0.3c0.2-0.2,1.5-0.6,2.3,0c0.2,0.2-0.1,0.1-0.5,0.8c-0.2,0.4-0.4,0.8-0.6,1.2
		c-0.7,1.5-0.8,2.7-0.2,2.7c1.1,0,2.3-1.9,2.3-1.9l0.4,0.4c0,0-1.3,2.3-3.1,2.7c-1.1,0.3-1.9-0.1-2.2-0.9c-0.6,0.4-1.2,0.7-1.8,0.9
		c-1.8,0.4-3.5-0.8-3.1-2.4c0.1-0.4,0.3-0.8,0.5-1.2C111.8,55.3,113.9,53.9,116.1,54.4z M115.6,57c-0.6,0.2-1.4-0.1-0.5-0.4
		c0.3-0.1,0.5-0.3,0.6-0.6c0.3-0.5,0-0.8-0.3-0.9c-0.3,0-0.9,0.2-1.5,0.9c-0.6,0.6-1.2,1.7-1.4,2.4c-0.1,0.6,0.1,1.1,1,1
		C114.9,59.3,115.2,58.2,115.6,57z"/>
	<path d="M119.2,58.2c0.2-0.6,0.5-1.3,0.9-1.9c0.9-1.4,1.9-2.2,3.7-2c0.4,0,0.1,0.3-0.4,0.9c-2,2.2-2.5,4.1-1.5,4.1
		c1.4-0.1,2-1.6,2.3-2.5c0.3-1.1,0.9-2.4,2.3-2.5c0.4,0,0.8,0.1,1.2,0.3c0.2,0.2-0.1,0.1-0.5,0.8c-0.3,0.6-0.7,1.2-0.9,1.9
		c1.3-0.5,2.7-0.9,2.7-0.9l0.4,0.4c-1,0.4-2.8,1.1-3.6,1.8c-0.6,2.4-1.1,4.8-3.2,4.9c-1.6,0-2.5-1.6-1.1-2.9
		C119.8,61,118.8,59.8,119.2,58.2z M122.2,61.8c0,0.3,0.1,0.4,0.5,0.4c0.2,0,0.5-1,0.8-2.1C123,60.6,122.2,61.1,122.2,61.8z"/>
	<path d="M145.9,52.7c-1.6,1.2-2.8,3.8-3.5,5.4c3.1-0.1,7.4-1.5,8.4-3.9c0.4-1.1-0.2-1.8-1.1-2.2c-3.5-1.6-9,0.7-11.7,2.4
		c-3.2,2-1.3,4-1.3,4c0.4,0.4-2.7-0.1-2.9-2.2c-0.1-2.4,3.7-4.8,8.2-6c2.4-0.6,5-1,7.4-0.4c2.4,0.6,3.8,2,3.2,4.3
		c-1,3.6-6.4,5.6-9.9,5.6c-0.3,0-0.7,0-0.9-0.1c-0.4,1.2-1,4.6,0,5.6c0.2,0.2-0.3,0.1-0.4,0.1c-2.2-0.3-3.2-2.9-1.8-6.8
		c-0.5-0.6-0.5-1.3-0.4-1.4c0.2-0.2,0.3,0,0.3,0s0.1,0.2,0.4,0.4c1.2-3.1,3.8-6.2,6.2-5.8C146.7,51.8,146.5,52.2,145.9,52.7z"/>
	<path d="M157.1,54.4c0.1,0,0.6,0.2,0.7,0.3c0.2-0.2,1.5-0.6,2.3,0c0.2,0.2-0.1,0.1-0.5,0.8c-0.2,0.4-0.4,0.8-0.6,1.1
		c-0.7,1.5-0.8,2.7-0.2,2.7c1.3,0,2.6-2,2.9-2.8c-1-0.2-1.2-0.9-0.9-1.4c0.6-1.1,2.7-1,3,0.3c0.1,0,0.2-0.1,0.2-0.1v0
		c0.8-0.3,1.5-0.6,1.9-0.7c1.9-0.7,2.2,0,1.7,0.9c-0.2,0.5-3.1,3.9-1.2,3.8c1.1-0.1,2.3-1.9,2.3-1.9l0.4,0.4c0,0-1.3,2.3-3.1,2.7
		c-1.8,0.4-2.7-0.8-2.3-2.4c0.1-0.5,0.6-1.6,0.9-2.1c-0.3,0.1-0.5,0.2-0.8,0.3c-0.5,2.2-4,4.6-6.4,4.3c-0.6-0.1-1.1-0.4-1.3-0.9
		c-0.6,0.4-1.2,0.7-1.8,0.9c-1.8,0.4-3.5-0.8-3.1-2.4c0.1-0.4,0.3-0.8,0.5-1.2C152.8,55.3,154.9,53.9,157.1,54.4z M156.6,57
		c-0.6,0.2-1.4-0.1-0.5-0.4c0.3-0.1,0.5-0.3,0.6-0.6c0.3-0.5,0-0.8-0.3-0.9c-0.3,0-0.9,0.2-1.5,0.9c-0.6,0.6-1.2,1.7-1.3,2.4
		c-0.1,0.6,0.1,1.1,1,1C155.9,59.3,156.2,58.2,156.6,57z M161.6,54.9c-0.2,0.1-0.2,0.3-0.1,0.5c0,0.2,0.3,0.4,0.5,0.4
		C162.3,55.2,162.1,54.6,161.6,54.9z"/>
	<path d="M174.1,52.7c-0.3,0.2-1,1-1.7,2.1c0.5-0.3,1.1-0.5,1.7-0.5c3.2-0.1,1.9,3.6-2.1,3.3c0,1,1,2.5,2.5,2.5
		c1.1,0,1.9-0.9,2.4-1.6l0.6,0.3c-1.6,3.8-6.5,2.9-7.2,0c-0.3,0.8-0.4,1.4-0.1,1.8c0.1,0.2-0.3,0.1-0.4,0.1
		c-1.2-0.1-1.8-1.2-1.4-2.5c0.4-1.7,2.8-7,6.2-6.4C174.9,51.9,174.7,52.3,174.1,52.7z M174.2,56c1.4-1.5-1.4-1.1-2.1,0.8
		C172.8,56.8,173.7,56.6,174.2,56z"/>
	<path d="M177.9,60.7c-1.5-0.2-2.4-1.1-2.1-2.5c0.5-2,2.8-4.4,5.7-3.8c2.5,0.5-0.4,3.6-3.3,3.5c-0.1,0.2-0.1,0.4-0.2,0.6
		c-0.2,1,0.6,1.5,1.6,1.2c1.5-0.3,3.8-1.7,4.4-3.2c-1-0.2-1.2-0.9-1-1.4c0.6-1.2,2.7-1,3.1,0.3c0.1,0,0.2-0.1,0.2-0.1h0
		c0.8-0.3,1.5-0.6,1.8-0.7c1.9-0.7,2.2,0,1.8,0.9c-0.2,0.5-3.1,3.9-1.2,3.8c1.1-0.1,2.3-1.9,2.3-1.9l0.4,0.4c0,0-1.3,2.3-3.1,2.7
		c-1.7,0.4-2.7-0.8-2.3-2.4c0.1-0.5,0.6-1.7,0.9-2.1c-0.3,0.1-0.6,0.2-0.8,0.3C185.2,58.8,181.4,61.1,177.9,60.7z M181.1,56
		c0.1-0.2,0.3-0.8-0.1-0.8c-0.2,0-0.6,0.1-1,0.5c-0.5,0.4-0.9,1-1.3,1.6C179.3,57.1,180.6,56.8,181.1,56z M184,54.9
		c-0.4,0.2-0.1,0.8,0.4,0.9C184.6,55.6,184.7,54.6,184,54.9z"/>
</g>
</svg>
