<?xml version="1.0" encoding="utf-8"?>
<!-- Generator: Adobe Illustrator 21.1.0, SVG Export Plug-In . SVG Version: 6.00 Build 0)  -->
<svg version="1.1" id="Layer_1" xmlns="http://www.w3.org/2000/svg" xmlns:xlink="http://www.w3.org/1999/xlink" x="0px" y="0px"
	 viewBox="0 0 774 775" style="enable-background:new 0 0 774 775;" xml:space="preserve">
<style type="text/css">
	.st0{fill:#FFCCFF;stroke:#000000;stroke-miterlimit:10;}
	.st1{fill:#CC0066;stroke:#000000;stroke-miterlimit:10;}
	.st2{fill:#FF66CC;stroke:#000000;stroke-miterlimit:10;}
	.st3{fill:#FF6699;stroke:#000000;stroke-miterlimit:10;}
	.st4{fill:#FF0099;stroke:#000000;stroke-miterlimit:10;}
	.st5{fill:#FF99CC;stroke:#000000;stroke-miterlimit:10;}
	.st6{fill:#FF0066;stroke:#000000;stroke-miterlimit:10;}
	.st7{fill:#330099;stroke:#000000;stroke-miterlimit:10;}
</style>
<g>
	<path class="st0" d="M388.5,17C183.3,17,17,184,17,390s166.3,373,371.5,373S760,596,760,390S593.7,17,388.5,17z M568.8,277.5
		c-9.3,0-17.5-4-23.2-10.4l-16.1,16.1c0,3.5-0.1,6.9-0.2,10.1c5.3,14.7,8.2,30.4,8.2,46.7c0,26.1-7.3,50.6-20.2,71.8v42.9
		c0,14.3-10,27.2-24.1,30.5l31.7,31.7c5.7-6.3,13.9-10.2,23.1-10.2c17.2,0,31.2,14,31.2,31.3c0,13.7-8.8,25.2-20.9,29.5
		c0,0.6,0,1.1,0,1.7c0,17.3-14,31.2-31.2,31.2s-31.2-14-31.2-31.2c0-6.4,1.9-12.2,5.1-17.2l-35.8-35.8v32.2
		c0.1,22.9-18.7,41.7-41.6,41.7h-83.7c-22.9,0-41.7-18.8-41.7-41.7v-33.9l-37,37c3.5,5,5.5,11.1,5.5,17.7c0,17.3-14,31.2-31.2,31.2
		c-17.2,0-31.3-14-31.3-31.2c0-0.6,0-1.2,0.1-1.8c-12.2-4.3-21-15.9-21-29.4c0-17.3,14-31.3,31.3-31.3c9,0,17,3.8,22.7,9.8
		l31.6-31.6c-13.1-3.7-22.6-15.8-22.6-30v-41.4C232.8,391.9,225,366.8,225,340c0-12.4,1.7-24.4,4.8-35.9c-0.4-6.8-0.7-14.5-0.7-23.1
		c0-0.3,0-0.6,0-0.9l-12.5-12.5c-5.7,6.1-13.8,9.9-22.8,9.9c-17.2,0-31.3-13.9-31.3-31.2s14-31.3,31.2-31.3c0.1,0,0.1,0,0.2,0
		c0,0,0,0,0,0c-0.2-17.2,13.8-31.2,31.1-31.2c14.6,0,26.8,10,30.3,23.4c9.6,2,23.5,5.5,39.1,11.6c24.9-15.5,54.7-24.6,86.9-24.6
		c31.5,0,60.8,8.7,85.3,23.7c17-6.5,31.9-9.8,40.9-11.5c3.7-13,15.7-22.6,30-22.6c17.3,0,31.2,14,31.2,31.2c0,0,0,0,0,0
		c0,0,0.1,0,0.1,0c17.2,0,31.2,14,31.2,31.3S586,277.5,568.8,277.5z"/>
	<path class="st1" d="M568.8,215c0,0-0.1,0-0.1,0C568.7,215,568.7,215,568.8,215c-0.1-17.2-14-31.2-31.3-31.2
		c-14.3,0-26.3,9.6-30,22.6c5.7-1,9-1.4,9-1.4s13,13.6,13,76c0,0.7,0,1.5,0,2.2l16.1-16.1c5.7,6.4,14,10.4,23.2,10.4
		c17.2,0,31.2-13.9,31.2-31.2S586,215,568.8,215z"/>
	<path class="st1" d="M255.3,207.2c-3.5-13.4-15.7-23.4-30.3-23.4c-17.3,0-31.3,14-31.1,31.2c0,0,0,0,0,0c-0.1,0-0.1,0-0.2,0
		c-17.2,0-31.2,14-31.2,31.3s14.1,31.2,31.3,31.2c9,0,17.1-3.8,22.8-9.9l12.5,12.5c0.1-61.6,13-75.1,13-75.1
		S247.1,205.5,255.3,207.2z"/>
	<path class="st1" d="M465.2,486.1h-20.9v31.2c0,11.4-9.4,20.8-20.9,20.8h-0.1h-21h-10h-21h-11h-20.2h-0.8v0
		c-11.1-0.4-20-9.6-20-20.8v-31.2h-21.1h-20.7c-3,0-5.9-0.4-8.6-1.2l-31.6,31.6c-5.7-6-13.7-9.8-22.7-9.8c-17.3,0-31.3,14-31.3,31.3
		c0,13.6,8.8,25.2,21,29.4c0,0.6-0.1,1.2-0.1,1.8c0,17.2,14.1,31.2,31.3,31.2c17.2,0,31.2-13.9,31.2-31.2c0-6.6-2-12.7-5.5-17.7
		l37-37v33.9c0,22.9,18.8,41.7,41.7,41.7h83.7c22.9,0,41.7-18.8,41.6-41.7v-32.2L501,552c-3.2,4.9-5.1,10.8-5.1,17.2
		c0,17.2,14,31.2,31.2,31.2s31.2-13.9,31.2-31.2c0-0.6,0-1.2,0-1.7c12.2-4.2,20.9-15.8,20.9-29.5c0-17.3-14-31.3-31.2-31.3
		c-9.1,0-17.4,3.9-23.1,10.2l-31.7-31.7c-2.3,0.6-4.7,0.9-7.2,0.9H465.2z M402.3,548.1h21v21h-21V548.1z M371.3,548.1h21v21h-21
		V548.1z M339.3,548.1h21v21h-21V548.1z"/>
	<path class="st2" d="M346.3,249.3c0.4-0.8,0.7-1.2,0.7-1.2h65c0,0,0.1,0.1,0.3,0.4v0c17.7-14.4,37.1-24.1,54.3-30.6
		c-24.5-15-53.8-23.7-85.3-23.7c-32.2,0-62,9.1-86.9,24.6c16.6,6.5,35,16,51.9,29.7V249.3z"/>
	<path class="st2" d="M412.3,313.6v-0.9c-0.2,0.3-0.3,0.4-0.3,0.4h-65c0,0-0.3-0.4-0.7-1.2v1.7C314.4,346.2,242.1,357,242.1,357
		s-9.7-10.1-12.3-52.9c-3.1,11.5-4.8,23.5-4.8,35.9c0,26.8,7.8,51.9,21.3,73.5v41.4c0,14.2,9.5,26.3,22.6,30
		c2.7,0.8,5.6,1.2,8.6,1.2h20.7h21.1v31.2c0,11.1,8.9,20.3,20,20.8v-21h21v21h11v-21h21v21h10v-21h21v21h0.1
		c11.5,0,20.9-9.4,20.9-20.8v-31.2h20.9H486c2.5,0,4.9-0.3,7.2-0.9c14-3.4,24.1-16.2,24.1-30.5v-42.9c12.9-21.2,20.2-45.7,20.2-71.8
		c0-16.3-2.9-32-8.2-46.7c-1.6,51.9-12.8,63.7-12.8,63.7S444.2,346.2,412.3,313.6z M381.3,444.2c10.4,2.1,26,28.1,26,41.7
		c0,6.2-4.1,10.4-10.4,10.4c-9.3,0-13.5-7.3-15.6-13.5c-2.1,5.2-7.3,13.5-15.6,13.5c-4.1,0-10.4-4.2-10.4-10.4
		C355.3,472.3,370.9,446.3,381.3,444.2z M318.7,454.7c-23,0-41.7-18.7-41.7-41.7s18.6-41.7,41.7-41.7c23.1,0,41.7,18.6,41.7,41.7
		C360.4,436,341.8,454.7,318.7,454.7z M443.7,454.7c-23,0-41.7-18.7-41.7-41.7s18.6-41.7,41.7-41.7c23.1,0,41.7,18.6,41.7,41.7
		C485.4,436,466.8,454.7,443.7,454.7z"/>
	<rect x="339.3" y="548.1" class="st3" width="21" height="21"/>
	<rect x="402.3" y="548.1" class="st3" width="21" height="21"/>
	<rect x="371.3" y="548.1" class="st3" width="21" height="21"/>
	<path class="st4" d="M365.7,496.3c8.3,0,13.5-8.3,15.6-13.5c2.1,6.2,6.3,13.5,15.6,13.5c6.3,0,10.4-4.2,10.4-10.4
		c0-13.6-15.6-39.6-26-41.7c-10.4,2.1-26,28.1-26,41.7C355.3,492.1,361.6,496.3,365.7,496.3z"/>
	<path class="st4" d="M443.7,371.3c-23.1,0-41.7,18.7-41.7,41.7s18.7,41.7,41.7,41.7c23.1,0,41.7-18.7,41.7-41.7
		C485.4,389.9,466.8,371.3,443.7,371.3z"/>
	<path class="st4" d="M360.4,413c0-23.1-18.6-41.7-41.7-41.7c-23.1,0-41.7,18.7-41.7,41.7s18.7,41.7,41.7,41.7
		C341.8,454.7,360.4,436,360.4,413z"/>
	<polygon class="st5" points="340.1,538.1 360.3,538.1 360.3,517.1 339.3,517.1 339.3,538.1 339.3,538.1 	"/>
	<rect x="402.3" y="517.1" class="st5" width="21" height="21"/>
	<rect x="371.3" y="517.1" class="st5" width="21" height="21"/>
	<path class="st6" d="M516.5,205c0,0-3.3,0.3-9,1.4c-9,1.6-23.9,5-40.9,11.5c-17.2,6.6-36.6,16.3-54.3,30.6v0c1.1,1.6,5,8,6.4,21.6
		c1.6-0.9,34.6-19,41.6-21.1c7.2-2.2,14.4,1,16.3,7c2.6,6-1.4,12.5-8.5,14.1h-49.4c0.3,3.1,0.5,6.6,0.5,10.5
		c0,20.9-5.5,30.1-6.9,32.1v0.9c31.9,32.6,104.2,43.4,104.2,43.4s11.3-11.8,12.8-63.7c0.1-3.2,0.2-6.6,0.2-10.1c0-0.7,0-1.5,0-2.2
		C529.5,218.6,516.5,205,516.5,205z M475.9,306.8c-2,5.4-9.8,8.7-16.3,6.5s-41-21.2-41-21.2h49.5
		C474.6,294.3,478.5,301.4,475.9,306.8z"/>
	<path class="st6" d="M346.3,313.6v-1.7c-1.7-3.1-5.8-12.7-5.8-31.3s4.1-28.2,5.8-31.3v-0.8c-16.9-13.7-35.3-23.1-51.9-29.7
		c-15.6-6.1-29.5-9.7-39.1-11.6c-8.2-1.7-13.2-2.2-13.2-2.2s-12.9,13.5-13,75.1c0,0.3,0,0.6,0,0.9c0,8.6,0.2,16.3,0.7,23.1
		c2.7,42.7,12.3,52.9,12.3,52.9S314.4,346.2,346.3,313.6z M298.7,313.3c-6.5,2.2-13.7-0.5-16.3-6.5c-2.5-5.9,0.9-12.3,7.8-14.7h49.5
		C339.7,292.1,305.2,311.1,298.7,313.3z M298.7,249c7.2,2.1,41.7,21.1,41.7,21.1h-49.5c-7.1-1.6-11.1-8.1-8.5-14.1
		C285,250,291.5,246.8,298.7,249z"/>
	<path class="st7" d="M468.1,292.1h-49.5c0,0,34.5,19,41,21.2s14.3-1.1,16.3-6.5C478.5,301.4,474.6,294.3,468.1,292.1z"/>
	<path class="st7" d="M282.4,256c-2.6,6,1.4,12.5,8.5,14.1h49.5c0,0-34.5-19-41.7-21.1C291.5,246.8,285,250,282.4,256z"/>
	<path class="st7" d="M468.1,270.1c7.1-1.6,11.1-8.1,8.5-14.1c-1.9-6-9.1-9.2-16.3-7c-7,2-40,20.2-41.6,21.1c0,0,0,0,0,0H468.1z"/>
	<path class="st7" d="M282.4,306.8c2.6,6,9.8,8.7,16.3,6.5s41-21.2,41-21.2h-49.5C283.3,294.5,279.9,300.9,282.4,306.8z"/>
	<path class="st4" d="M347,248.1c0,0-0.3,0.4-0.7,1.2c-1.7,3.1-5.8,12.7-5.8,31.3s4.1,28.2,5.8,31.3c0.4,0.8,0.7,1.2,0.7,1.2h65
		c0,0,0.1-0.1,0.3-0.4c1.4-2,6.9-11.2,6.9-32.1c0-3.9-0.2-7.4-0.5-10.5c0,0,0,0,0,0c-1.4-13.5-5.3-20-6.4-21.6
		c-0.2-0.3-0.3-0.4-0.3-0.4H347z"/>
</g>
</svg>
