<?xml version="1.0" encoding="utf-8"?>
<!-- Generator: Adobe Illustrator 21.1.0, SVG Export Plug-In . SVG Version: 6.00 Build 0)  -->
<svg version="1.1" id="Layer_1" xmlns="http://www.w3.org/2000/svg" xmlns:xlink="http://www.w3.org/1999/xlink" x="0px" y="0px"
	 viewBox="0 0 624 607" style="enable-background:new 0 0 624 607;" xml:space="preserve">
<style type="text/css">
	.st0{fill:#FFCCFF;stroke:#000000;stroke-miterlimit:10;}
	.st1{fill:#CC0066;stroke:#000000;stroke-miterlimit:10;}
	.st2{fill:#FF66CC;stroke:#000000;stroke-miterlimit:10;}
	.st3{fill:#FF66CC;}
	.st4{fill:#FF6699;}
	.st5{fill:#FF0099;stroke:#000000;stroke-miterlimit:10;}
	.st6{fill:#FF99CC;}
	.st7{fill:#FF0066;stroke:#000000;stroke-miterlimit:10;}
	.st8{fill:#311B92;}
</style>
<ellipse id="XMLID_1_" class="st0" cx="317.8" cy="296.9" rx="277" ry="279.5"/>
<g id="surface1">
	<path class="st1" d="M146.1,455.4l324.1-324.1l29.5,29.5l-324.1,324L146.1,455.4z"/>
	<path class="st1" d="M501.5,130c0,17.3-14,31.3-31.2,31.3c-17.3,0-31.2-14-31.2-31.3s14-31.2,31.2-31.2
		C487.5,98.7,501.5,112.7,501.5,130z"/>
	<path class="st1" d="M532.8,161.2c0,17.3-14,31.2-31.2,31.2c-17.3,0-31.2-14-31.2-31.2c0-17.3,14-31.3,31.2-31.3
		C518.8,130,532.8,143.9,532.8,161.2z"/>
	<path class="st1" d="M178.6,452.9c0,17.3-14,31.2-31.2,31.2s-31.2-14-31.2-31.2c0-17.3,14-31.2,31.2-31.2S178.6,435.6,178.6,452.9z
		"/>
	<path class="st1" d="M199.4,484.1c0,17.3-14,31.2-31.2,31.2s-31.3-14-31.3-31.2c0-17.3,14-31.2,31.3-31.2S199.4,466.8,199.4,484.1z
		"/>
	<path class="st1" d="M127.8,161l29.5-29.5l324.1,324.1l-29.5,29.5L127.8,161z"/>
	<path class="st1" d="M356.3,505h-83.7c-22.9,0-41.7-18.8-41.7-41.7V401h167v62.3C398,486.2,379.2,505,356.3,505z"/>
	<path class="st1" d="M189,130c0,17.3-14,31.3-31.2,31.3s-31.3-14.1-31.3-31.3c0-17.3,14-31.2,31.2-31.2S189,112.7,189,130z"/>
	<path class="st1" d="M157.8,161.2c0,17.3-14,31.2-31.2,31.2s-31.2-14-31.2-31.2c0-17.3,14-31.3,31.2-31.3S157.8,143.9,157.8,161.2z
		"/>
	<path class="st1" d="M511.9,452.9c0,17.3-14,31.2-31.2,31.2c-17.3,0-31.2-14-31.2-31.2c0-17.3,14-31.2,31.2-31.2
		C497.9,421.6,511.9,435.6,511.9,452.9z"/>
	<path class="st1" d="M491.1,484.1c0,17.3-14,31.2-31.2,31.2s-31.2-14-31.2-31.2c0-17.3,14-31.2,31.2-31.2S491.1,466.8,491.1,484.1z
		"/>
	<path class="st2" d="M470.2,255c0-80.6-69.9-145.8-156.2-145.8S157.8,174.4,157.8,255c0,80.5,69.9,145.8,156.2,145.8
		S470.2,335.5,470.2,255z"/>
	<path class="st3" d="M418.7,401H210.2c-17.3,0-31.2-14-31.2-31.2V286h271v83.6C450,386.3,436.4,401,418.7,401z"/>
	<path class="st3" d="M356.2,453h-83.3c-11.5,0-20.8-9.4-20.8-20.8V370h125v62.2C377,443.6,367.6,453,356.2,453z"/>
	<path class="st4" d="M272,463h21v21h-21V463z"/>
	<path class="st4" d="M335,463h21v21h-21V463z"/>
	<path class="st4" d="M304,463h21v21h-21V463z"/>
	<path class="st5" d="M314,359.1c-10.4,2.1-26,28.1-26,41.7c0,6.2,6.3,10.4,10.4,10.4c8.3,0,13.5-8.3,15.6-13.5
		c2.1,6.2,6.3,13.5,15.6,13.5c6.3,0,10.4-4.2,10.4-10.4C340,387.3,324.4,361.2,314,359.1z"/>
	<path class="st5" d="M418.2,327.9c0,23-18.6,41.7-41.7,41.7c-23,0-41.7-18.7-41.7-41.7s18.6-41.7,41.7-41.7
		C399.5,286.2,418.2,304.9,418.2,327.9z"/>
	<path class="st5" d="M293.2,327.9c0,23-18.6,41.7-41.7,41.7c-23,0-41.7-18.7-41.7-41.7s18.6-41.7,41.7-41.7
		C274.5,286.2,293.2,304.9,293.2,327.9z"/>
	<path class="st6" d="M272,432h21v21h-21V432z"/>
	<path class="st6" d="M335,432h21v21h-21V432z"/>
	<path class="st6" d="M304,432h21v21h-21V432z"/>
</g>
<g id="Layer_2">
	<g id="Layer_1-2">
		<g id="surface1_1_">
			<path class="st7" d="M279.5,163.4v65.1C247.6,261.1,175.3,272,175.3,272s-13-13.6-13-76s13-76,13-76S233.2,126,279.5,163.4z
				 M345,163.4v65.1c31.9,32.6,104.2,43.4,104.2,43.4s13-13.6,13-76s-13-76-13-76S391.2,126,345,163.4z"/>
			<path class="st8" d="M273.1,185.1h-49.5c-7.1-1.6-11.1-8.1-8.5-14.1s9.1-9.2,16.3-7S273.1,185.1,273.1,185.1z M223,206.8
				c-6.9,2.4-10.3,8.8-7.8,14.7c2.6,6,9.8,8.7,16.3,6.5s41-21.2,41-21.2H223z M351.3,185.1h49.5c7.1-1.6,11.1-8.1,8.5-14.1
				c-1.9-6-9.1-9.2-16.3-7C385.8,166.1,351.3,185.1,351.3,185.1z M351.3,206.8c0,0,34.5,19,41,21.2s14.3-1.1,16.3-6.5
				c2.6-5.4-1.3-12.5-7.8-14.7H351.3z"/>
			<path class="st5" d="M279.7,228.5h65.1c0,0,7.2-8.7,7.2-32.6s-7.2-32.6-7.2-32.6h-65.1c0,0-6.5,9.2-6.5,32.6
				S279.7,228.5,279.7,228.5z"/>
		</g>
	</g>
</g>
</svg>
