<?xml version="1.0" encoding="utf-8"?>
<!-- Generator: Adobe Illustrator 21.1.0, SVG Export Plug-In . SVG Version: 6.00 Build 0)  -->
<svg version="1.1" id="Layer_1" xmlns="http://www.w3.org/2000/svg" xmlns:xlink="http://www.w3.org/1999/xlink" x="0px" y="0px"
	 viewBox="0 0 512 512" style="enable-background:new 0 0 512 512;" xml:space="preserve">
<style type="text/css">
	.st0{fill:#C5E4FA;}
	.st1{fill:#E3F2FF;}
	.st2{fill:#FF6699;}
	.st3{fill:#FF9933;}
	.st4{fill:#CED8ED;}
</style>
<g id="surface1">
	<path class="st0" d="M40,152h432v288H40V152z"/>
	<path class="st1" d="M318.1,440L472,286.1V152.6h-20.6L164.1,440H318.1z"/>
	<path class="st1" d="M71.2,440h61.6l287.3-287.4h-61.6L71.2,440z"/>
	<path class="st1" d="M323.2,152.6L40.6,435.3l-0.6,0.2v-9.9l273-272.9H323.2z"/>
	<path class="st2" d="M104,200h304v32H104V200z"/>
	<path class="st3" d="M280,280h128v96H280V280z"/>
	<path class="st4" d="M40,72h432v80H40V72z"/>
	<path class="st2" d="M440,144h-32c-4.4,0-8,3.6-8,8s3.6,8,8,8h32c4.4,0,8-3.6,8-8S444.4,144,440,144z"/>
	<path class="st2" d="M456,64H56c-13.2,0-24,10.8-24,24v336c0,13.2,10.8,24,24,24h400c13.2,0,24-10.8,24-24V88
		C480,74.8,469.2,64,456,64z M464,424c0,4.4-3.6,8-8,8H56c-4.4,0-8-3.6-8-8V160h328c4.4,0,8-3.6,8-8s-3.6-8-8-8H48V88
		c0-4.4,3.6-8,8-8h400c4.4,0,8,3.6,8,8V424z"/>
	<path class="st2" d="M160,96c-4.4,0-8,3.6-8,8v16c0,4.4,3.6,8,8,8s8-3.6,8-8v-16C168,99.6,164.4,96,160,96z"/>
	<path class="st2" d="M120,96c-4.4,0-8,3.6-8,8v16c0,4.4,3.6,8,8,8s8-3.6,8-8v-16C128,99.6,124.4,96,120,96z"/>
	<path class="st2" d="M80,96c-4.4,0-8,3.6-8,8v16c0,4.4,3.6,8,8,8s8-3.6,8-8v-16C88,99.6,84.4,96,80,96z"/>
	<path class="st2" d="M280,96c-4.4,0-8,3.6-8,8v16c0,4.4,3.6,8,8,8s8-3.6,8-8v-16C288,99.6,284.4,96,280,96z"/>
	<path class="st2" d="M320,96c-4.4,0-8,3.6-8,8v16c0,4.4,3.6,8,8,8s8-3.6,8-8v-16C328,99.6,324.4,96,320,96z"/>
	<path class="st2" d="M360,96c-4.4,0-8,3.6-8,8v16c0,4.4,3.6,8,8,8s8-3.6,8-8v-16C368,99.6,364.4,96,360,96z"/>
	<path class="st2" d="M400,128c4.4,0,8-3.6,8-8v-16c0-4.4-3.6-8-8-8s-8,3.6-8,8v16C392,124.4,395.6,128,400,128z"/>
	<path class="st2" d="M440,96c-4.4,0-8,3.6-8,8v16c0,4.4,3.6,8,8,8s8-3.6,8-8v-16C448,99.6,444.4,96,440,96z"/>
	<path class="st2" d="M200,96c-4.4,0-8,3.6-8,8v16c0,4.4,3.6,8,8,8s8-3.6,8-8v-16C208,99.6,204.4,96,200,96z"/>
	<path class="st2" d="M240,96c-4.4,0-8,3.6-8,8v16c0,4.4,3.6,8,8,8s8-3.6,8-8v-16C248,99.6,244.4,96,240,96z"/>
	<path class="st3" d="M408,192H104c-4.4,0-8,3.6-8,8v32c0,4.4,3.6,8,8,8h304c4.4,0,8-3.6,8-8v-32C416,195.6,412.4,192,408,192z
		 M400,224H112v-16h288V224z"/>
	<path class="st2" d="M408,272H280c-4.4,0-8,3.6-8,8v96c0,4.4,3.6,8,8,8h128c4.4,0,8-3.6,8-8v-96C416,275.6,412.4,272,408,272z
		 M400,368H288v-80h112V368z"/>
	<path class="st3" d="M216,320c4.4,0,8-3.6,8-8s-3.6-8-8-8h-16c-4.4,0-8,3.6-8,8s3.6,8,8,8H216z"/>
	<path class="st3" d="M104,320h64c4.4,0,8-3.6,8-8s-3.6-8-8-8h-64c-4.4,0-8,3.6-8,8S99.6,320,104,320z"/>
	<path class="st2" d="M152,368h-48c-4.4,0-8,3.6-8,8s3.6,8,8,8h48c4.4,0,8-3.6,8-8S156.4,368,152,368z"/>
	<path class="st2" d="M232,272H104c-4.4,0-8,3.6-8,8s3.6,8,8,8h128c4.4,0,8-3.6,8-8S236.4,272,232,272z"/>
	<path class="st2" d="M232,336H104c-4.4,0-8,3.6-8,8s3.6,8,8,8h128c4.4,0,8-3.6,8-8S236.4,336,232,336z"/>
</g>
</svg>
